<svg id="_0369_chef" xmlns="http://www.w3.org/2000/svg" xmlns:xlink="http://www.w3.org/1999/xlink" viewBox="0 0 500 500" data-imageid="chef-63" imageName="Chef" class="illustrations_image" style="width: 178px;"><defs><style>.cls-1_chef-63{fill:url(#linear-gradient-16-chef-63);opacity:.54;}.cls-1_chef-63,.cls-2_chef-63,.cls-3_chef-63,.cls-4_chef-63,.cls-5_chef-63,.cls-6_chef-63,.cls-7_chef-63,.cls-8_chef-63,.cls-9_chef-63,.cls-10_chef-63,.cls-11_chef-63,.cls-12_chef-63,.cls-13_chef-63,.cls-14_chef-63,.cls-15_chef-63,.cls-16_chef-63,.cls-17_chef-63,.cls-18_chef-63,.cls-19_chef-63,.cls-20_chef-63,.cls-21_chef-63,.cls-22_chef-63{stroke-width:0px;}.cls-2_chef-63{fill:url(#linear-gradient);}.cls-3_chef-63{isolation:isolate;opacity:.18;}.cls-3_chef-63,.cls-22_chef-63{fill:#68e1fd;}.cls-4_chef-63{fill:url(#linear-gradient-11-chef-63);}.cls-5_chef-63{fill:url(#linear-gradient-12-chef-63);}.cls-6_chef-63{fill:url(#linear-gradient-13-chef-63);}.cls-7_chef-63{fill:url(#linear-gradient-10-chef-63);}.cls-8_chef-63{fill:url(#linear-gradient-15-chef-63);}.cls-9_chef-63{fill:url(#linear-gradient-14-chef-63);}.cls-10_chef-63{fill:url(#linear-gradient-2-chef-63);}.cls-11_chef-63{fill:url(#linear-gradient-3-chef-63);}.cls-12_chef-63{fill:url(#linear-gradient-8-chef-63);}.cls-13_chef-63{fill:url(#linear-gradient-9-chef-63);}.cls-14_chef-63{fill:url(#linear-gradient-7-chef-63);}.cls-15_chef-63{fill:url(#linear-gradient-6-chef-63);}.cls-16_chef-63{fill:url(#linear-gradient-5-chef-63);}.cls-16_chef-63,.cls-17_chef-63{opacity:.4;}.cls-17_chef-63{fill:url(#linear-gradient-4-chef-63);}.cls-18_chef-63{fill:#f7af81;}.cls-19_chef-63{fill:#7d3b3d;}.cls-20_chef-63{fill:#fff;}.cls-21_chef-63{fill:#f69771;}</style><linearGradient id="linear-gradient-chef-63" x1="733.14" y1="1936.52" x2="718.82" y2="1744.63" gradientTransform="translate(-471 2246.87) scale(1 -1)" gradientUnits="userSpaceOnUse"><stop offset="0" stop-color="#231f20" stop-opacity="0"/><stop offset="1" stop-color="#231f20"/></linearGradient><linearGradient id="linear-gradient-2-chef-63" x1="861.81" y1="2174.98" x2="867.18" y2="2091.4" gradientTransform="translate(-530.38 2244.39) scale(1 -1)" gradientUnits="userSpaceOnUse"><stop offset=".02" stop-color="#fff" stop-opacity="0"/><stop offset=".39" stop-color="#fff" stop-opacity=".39"/><stop offset="1" stop-color="#fff"/></linearGradient><linearGradient id="linear-gradient-3-chef-63" x1="773.84" y1="2036.09" x2="802.5" y2="1679.65" gradientTransform="translate(-530.38 2244.39) scale(1 -1)" xlink:href="#linear-gradient-chef-63"/><linearGradient id="linear-gradient-4-chef-63" x1="265.94" y1="350.6" x2="292.27" y2="350.6" gradientTransform="matrix(1,0,0,1,0,0)" xlink:href="#linear-gradient-chef-63"/><linearGradient id="linear-gradient-5-chef-63" x1="229.66" y1="347.96" x2="231.1" y2="365.88" gradientTransform="matrix(1,0,0,1,0,0)" xlink:href="#linear-gradient-chef-63"/><linearGradient id="linear-gradient-6-chef-63" x1="222.78" y1="91.48" x2="95.72" y2="569.41" gradientTransform="matrix(1,0,0,1,0,0)" xlink:href="#linear-gradient-chef-63"/><linearGradient id="linear-gradient-7-chef-63" x1="304.28" y1="138.97" x2="228.98" y2="422.19" gradientTransform="matrix(1,0,0,1,0,0)" xlink:href="#linear-gradient-chef-63"/><linearGradient id="linear-gradient-8-chef-63" x1="302.67" y1="112.72" x2="175.61" y2="590.65" gradientTransform="matrix(1,0,0,1,0,0)" xlink:href="#linear-gradient-chef-63"/><linearGradient id="linear-gradient-9-chef-63" x1="791.34" y1="2146.61" x2="789.55" y2="2075.56" gradientTransform="translate(-530.38 2244.39) scale(1 -1)" xlink:href="#linear-gradient-chef-63"/><linearGradient id="linear-gradient-10-chef-63" x1="800.28" y1="2115.26" x2="811.02" y2="2083.41" xlink:href="#linear-gradient-chef-63"/><linearGradient id="linear-gradient-11-chef-63" x1="854.83" y1="2131.99" x2="866.77" y2="2086.61" xlink:href="#linear-gradient-2-chef-63"/><linearGradient id="linear-gradient-12-chef-63" x1="860.67" y1="2132.78" x2="872.26" y2="2088.72" xlink:href="#linear-gradient-2-chef-63"/><linearGradient id="linear-gradient-13-chef-63" x1="746.32" y1="1848.19" x2="759.46" y2="1724.39" gradientTransform="translate(-530.38 2244.39) scale(1 -1)" xlink:href="#linear-gradient-chef-63"/><linearGradient id="linear-gradient-14-chef-63" x1="802.73" y1="1851.39" x2="815.86" y2="1727.59" gradientTransform="translate(-530.38 2244.39) scale(1 -1)" xlink:href="#linear-gradient-chef-63"/><linearGradient id="linear-gradient-15-chef-63" x1="782.58" y1="1860.39" x2="781.99" y2="2056.23" gradientTransform="translate(-530.38 2244.39) scale(1 -1)" xlink:href="#linear-gradient-chef-63"/><linearGradient id="linear-gradient-16-chef-63" x1="237.06" y1="64.16" x2="436.7" y2="109.43" gradientTransform="matrix(1,0,0,1,0,0)" xlink:href="#linear-gradient-chef-63"/></defs><g id="background_chef-63"><path class="cls-3_chef-63 targetColor" d="M157.4,481.83c29.51,11.91,62.33,10.55,94.06,9,39.53-1.92,82.34-5.21,111.79-32.2,26.65-24.43,35.85-62.42,47-97.23,20.54-64.28,52.55-129.15,41.96-195.88-6.82-42.51-31.35-81.22-64.78-107.26-33.43-26.04-75.44-39.7-117.44-41.18-17.86-.63-36.38,1.04-52.09,9.77-11.01,6.13-20.01,15.4-28.63,24.78-35.12,38.51-65.67,80.96-91.05,126.48-19.43,34.79-36.07,72.25-40.16,112.07-6.64,64.19,36.68,166.44,99.34,191.64Z" style="fill: rgb(104, 225, 253);"/><ellipse class="cls-2_chef-63" cx="251.87" cy="447.94" rx="99.71" ry="18.08"/></g><g id="character_chef-63"><path class="cls-10_chef-63" d="M298.77,135.32c0-9.28,2.96-18.58,1.28-27.7-1.8-9.86-8.86-19.09-6.72-28.91,1.36-6.11,6.01-10.91,10.5-15.21l8.63-8.42c.93-1.04,2.05-1.9,3.3-2.52,1.36-.48,2.79-.69,4.23-.63,8.96-.16,17.92-.07,26.87.27,7.42.27,15.77,1.2,20.35,7.03,4.09,5.29,3.67,12.79,2.22,19.34-1.45,6.56-3.67,13.24-2.36,19.82,1.66,8.36,8.9,16.1,6.38,24.24-1.09,3.56-3.93,6.34-5.26,9.82-1.1,2.86-1.25,6.26-3.44,8.41-1.57,1.29-3.45,2.16-5.45,2.51-14.31,3.79-28.63,8.56-43,11.97-11.82,2.82-17.57-9.46-17.53-20.01Z"/><path class="cls-18_chef-63" d="M239.28,426.07s2.15,14.11,1,15.72-7.93,1.06-12.11.15-5.18-6.33-5.18-6.33l-.29-4.44,16.58-5.1Z"/><path class="cls-18_chef-63" d="M295.74,421.18s2.73,17.26,1.8,18.76c-.93,1.5-7.32,1.27-11.04.82s-4.2-9.88-4.2-9.88l-.63-3.86,14.07-5.83Z"/><path class="cls-19_chef-63" d="M240.59,88.24c.31.72.69,1.4,1.15,2.03,1.43,2.52.74,5.96,2.51,8.26.44-1.85,4.09-14.89,2.36-15.73-.41-.2-2.56,1.59-3.07,1.83-1.55.67-3.72,1.2-2.94,3.61Z"/><path class="cls-22_chef-63 targetColor" d="M286.54,252.71l3.54,72.33,6.82,100.22s-3.91,4.69-15.17,4.84l-20.26-102-9.54-51.8-8.18,50.56-3.42,105.32s-7.95.16-18.28,1.09l-6.69-103.85,6.63-80.43,64.56,3.71Z" style="fill: rgb(104, 225, 253);"/><path class="cls-11_chef-63" d="M286.54,252.71l3.54,72.33,6.82,100.22s-3.91,4.69-15.17,4.84l-20.26-102-9.54-51.8-8.18,50.56-3.42,105.32s-7.95.16-18.28,1.09l-6.69-103.85,6.63-80.43,64.56,3.71Z"/><polygon class="cls-17_chef-63" points="267.24 357.15 292.27 357.15 291.11 344.04 265.94 350.6 267.24 357.15"/><polygon class="cls-16_chef-63" points="216.99 350.94 216.79 351.7 217.21 358.22 242.73 358.22 243.11 350.12 216.99 350.94"/><path class="cls-20_chef-63" d="M228.82,135.58l-6.2,34.29h0c-.56.37-18.34,12.43-20.45,15.21-2.11,2.78-11.12,6.52-14.2,7.06s-9.94-5.32-8.83-14.26c1.1-8.94,36.81-38.58,40.54-40.69s9.15-1.61,9.15-1.61Z"/><path class="cls-15_chef-63" d="M224.81,153.25l-2.19,16.62h0c-.56.37-18.34,12.43-20.45,15.21-2.11,2.78-11.12,6.52-14.2,7.06s-9.94-5.32-8.83-14.26l19.09-2.73,26.6-21.91Z"/><path class="cls-20_chef-63" d="M277.88,255.69c-5.45,3-12.1,3.66-18.41,3.63-7.93-.03-15.86-.94-23.59-2.71-3.8-.87-7.67-2-10.71-4.46-7.12-5.76-3.94-17.04-3.55-24.87,1.81-41.67-2.45-89.84-1.1-90.93,2.44-1.96,26.05-9.3,26.05-9.3l24.54,2.13,3.01,1.36c5.18,2.29,15.38,6.82,16.93,8.18.08,0,.14.3.19.7.16,1.23.25,3.99.29,7.96.1,9.27,0,25.07.08,43.13,0,1.91,0,3.84,0,5.81.15,17.82,5.49,44.83-11.02,57.59-.86.67-1.77,1.25-2.71,1.77Z"/><path class="cls-14_chef-63" d="M282.67,244.6c-.49.16-.96.25-1.38.25-2.14-.03-.96-3.39-1.03-5.11-.1-2.67-.21-5.35-.31-8.02-.61-15.65-1.21-31.31-1.82-46.96l9.16-12.73s4.25,18.51,4.25,18.51c0,9.25.12,18.5.34,27.75.11,4.72.25,9.44.42,14.15.08,2.12.56,3.82-.71,5.58-1.02,1.43-2.39,2.64-3.82,3.65-1.21.85-3.31,2.34-5.11,2.93Z"/><path class="cls-20_chef-63" d="M311.57,204.83c-2.3,3.41-7.25,4.34-11.04,2.73-3.76-1.79-6.61-5.07-7.85-9.05-.29-.79-.66-1.55-1.09-2.26-1.89-3.24-4.93-6.67-5.07-9.98-.37-7.87-3.29-15.72-3.3-23.6,0-6.07,4.09-12.61,6.28-18.84.54-1.46.94-2.97,1.21-4.5.16-.02.32-.02.48,0,3,.38,6.68,7.13,7.81,9.37,1.91,3.97,3.29,8.18,4.09,12.51,1.74,8.71,3.41,12.87,6.82,21.05,1.21,2.86,1.62,10.54,2.45,13.54,1.06,2.98.77,6.28-.79,9.04Z"/><path class="cls-12_chef-63" d="M309.99,182.3l-6.48,8.18s-4.17-11.96-5.34-17.63c-1.06-5.02-4.46-19.37-6.68-25.52-.23-.66-.49-1.32-.79-1.95-.32-.56-.72-1.08-1.19-1.53-4.44-4.46-17.93-11.3-17.93-11.3l2.49-2.04c5.18,2.29,15.38,6.82,16.93,8.18.08,0,.14.3.19.7,3,.38,6.68,7.13,7.81,9.37,1.91,3.97,3.29,8.18,4.09,12.51,1.74,8.7,3.41,12.86,6.88,21.03Z"/><path class="cls-18_chef-63" d="M271.84,111.25s-1.57,11.42-.31,15.65c1.25,4.23-4.55,16.89-13.16,17.72-8.6.83-9.92-13.85-10.09-15.57-.16-1.72,2.36-2.82,1.1-7.05-1.25-4.23,21.13-15.84,22.45-10.76Z"/><path class="cls-21_chef-63" d="M249.39,121.95c.7,3.47.57,7.05-.35,10.46,2.28,1.73,4.38,4.7,6.82,4.47,5.15-.46,12.51-11.98,15.25-20.03,0-.15.1-.3.14-.45.25-2.89.55-5.15.55-5.15-1.27-5.08-23.64,6.48-22.4,10.7Z"/><path class="cls-18_chef-63" d="M243.75,86.19s-1.95,22.45-.29,28.51c1.66,6.05,6.82,11.3,11.98,11.36s13.01-4.19,16.54-11.93c3.53-7.74,5.45-26.72,4.62-29.32-.83-2.6-5.97-10.82-19.78-9.71-9.5.76-13.03,7.65-13.07,11.1Z"/><path class="cls-18_chef-63" d="M273.34,98.98s.4-5.25,3.99-3.83c3.6,1.42.15,11.26-1.5,12.27-.72.55-1.59.88-2.49.97"/><path class="cls-18_chef-63" d="M193.68,186.8s8-2.17,5.21-14.26c-2.79-12.09-12.9-47.71-12.9-47.71l-9.15,7.35s-3.18,48.9,3.5,53.17c3.98,2.52,8.9,3.06,13.33,1.46Z"/><path class="cls-18_chef-63" d="M185.99,124.87s1.36-6.33.71-8.02c-.65-1.69-7.33-13.81-9.97-12.05s-6.39,13.44-6.69,14.23,6.8,13.14,6.8,13.14l9.15-7.31Z"/><path class="cls-18_chef-63" d="M313.61,203.63l22.73-30.93-.67-18.65-37.76,38.88c-3.6,3.85-3.39,9.89.46,13.49.64.6,1.36,1.11,2.14,1.51l2.81.29c4,.42,7.93-1.32,10.29-4.58Z"/><path class="cls-18_chef-63" d="M333.27,173.92c2.12-.44,4.2-1.06,6.22-1.87,1.66-.89,6.95-19.77,5.45-21.02-1.5-1.25-7.72-4.8-9.45-3.65s-11.07,10.12-11.07,10.12c0,0,2.64,18.31,8.85,16.43Z"/><path class="cls-22_chef-63 targetColor" d="M246.58,127.06l2.3-1.7s2.73,13.84,7.66,15.23c0,0,7.87,3.08,14.63-15l2.59,5.22s-4.78,11.34-7.36,12.54c-2.58,1.2-10.03,8.42-16.73-1.2-3.18-4.62-3.09-15.09-3.09-15.09Z" style="fill: rgb(104, 225, 253);"/><path class="cls-13_chef-63" d="M246.58,127.06l2.3-1.7s2.73,13.84,7.66,15.23c0,0,7.87,3.08,14.63-15l2.59,5.22s-4.78,11.34-7.36,12.54c-2.58,1.2-10.03,8.42-16.73-1.2-3.18-4.62-3.09-15.09-3.09-15.09Z"/><path class="cls-18_chef-63" d="M190.21,110.66c1.28-1.15,2.38-2.48,3.26-3.95.13-.23.17-.5.11-.75-.08-.16-.21-.29-.37-.37-1.18-.67-2.62-.67-3.8,0-1.16.67-2.06,1.71-2.56,2.96-.17.53-.44,1.02-.79,1.46-.91.67-2.09.87-3.18.53-.27-.09-.55-.09-.82,0-.42.22-.48.79-.44,1.27.12,1.49,2,6.54,4.19,6.16.9-.16,1.36-2.73,1.73-3.45.71-1.4,1.61-2.7,2.67-3.86Z"/><path class="cls-20_chef-63" d="M285.71,71.13c-2.23.89-4.58,1.46-6.97,1.69l-1.39,18.33-.18,2.35c-1.19-1.27-2.41-2.38-3.64-3.37-1.53-1.23-3.09-2.25-4.65-3.1-12.61-6.9-25.36-2.56-25.36-2.56l2.63-16.32s1.58-1.6-6.18-2.48c-4.87-.56-4.21-4.79-2.72-7.47,1.48-2.69,6.57-.6,6.57-.6,0,0-.89-3.88,6.27-7.16,7.15-3.29,11.34,5.37,11.34,5.37,1.18-4.18,7.46-5.37,7.46-5.37,12.84,0,8.05,9.95,8.05,9.95,2.66-2,6.02-2.76,9.25-2.14.23.04.47.09.7.15,5.63,1.6,3.19,11.14-1.18,12.73Z"/><path class="cls-19_chef-63" d="M271.79,103.68c1.92-2.68,3.45-5.62,4.57-8.72.43.74,1.1,1.3,1.89,1.59.82.28,1.73-.03,2.21-.75.33-.71.19-1.55-.35-2.11-.54-.55-1.24-.9-2-1-.21-.02-.42-.1-.59-.23-.35-.38,0-1.05-.2-1.49-.17-.19-.39-.33-.64-.38-1.24-.41-3.18-1.36-4.38-1.64-.63,2,.75,4.91.6,7.1-.18,2.56-.55,5.11-1.1,7.62Z"/><path class="cls-19_chef-63" d="M274.35,115.5c-.05.59-.17,1.16-.37,1.72-.57,1.11-1.42,2.05-2.47,2.73-.14.13-.32.21-.5.26-.39,0-.72-.3-.76-.68-.04-.38.03-.76.19-1.1l2.64-7.5c.21-.55.38-1.12.49-1.7.02-.27.09-.54.19-.79.19-.37.86-.9,1.36-.65s.08,1.64,0,2.1l-.78,5.63Z"/><polygon class="cls-22_chef-63 targetColor" points="295.99 164.06 378.05 145.06 364.35 144.14 304.93 158.33 295.99 164.06" style="fill: rgb(104, 225, 253);"/><polygon class="cls-7_chef-63" points="295.99 164.06 378.05 145.06 364.35 144.14 304.93 158.33 295.99 164.06"/><path class="cls-22_chef-63 targetColor" d="M304.98,158.35s-6.52-29.19,19.09-34.75c31.64-6.82,40.23,20.56,40.23,20.56l-59.31,14.19Z" style="fill: rgb(104, 225, 253);"/><path class="cls-4_chef-63" d="M364.35,144.16l-59.37,14.19s-6.52-29.19,19.09-34.75c1.51-.33,2.97-.57,4.38-.75,25.9-3.3,34.5,17.54,35.7,20.86l.2.45Z"/><path class="cls-5_chef-63" d="M364.19,143.71l-47.9,11.45s-5.21-23.46,12.27-32.31c25.78-3.3,34.44,17.5,35.63,20.86Z"/><circle class="cls-22_chef-63 targetColor" cx="323.13" cy="121.2" r="2.78" style="fill: rgb(104, 225, 253);"/><path class="cls-22_chef-63 targetColor" d="M204.17,440.65c-2.37.9-4.88,2.29-4.88,5.33.01,1.2.43,2.37,1.17,3.31,2.9,3.9,8.27,4.09,12.99,3.9,8.8-.45,17.55-1.64,26.16-3.54.59-.08,1.15-.31,1.62-.67.46-.51.74-1.15.82-1.83.61-2.97.7-6.01.27-9.01-.12-.87-.92-1.47-1.78-1.35-.28.04-.54.15-.77.33-1.71,1.4-3.88,2.11-6.09,1.99-5.25-.34-7.25-4.93-12.61-3.37-5.58,1.62-11.52,2.84-16.9,4.91Z" style="fill: rgb(104, 225, 253);"/><path class="cls-22_chef-63 targetColor" d="M260.75,439.01c-2.37.9-4.88,2.29-4.89,5.32.03,1.21.44,2.37,1.19,3.33,2.89,3.9,8.27,4.09,12.99,3.89,8.8-.45,17.55-1.64,26.16-3.54.59-.08,1.15-.31,1.62-.67.46-.51.75-1.15.82-1.83.61-3,.7-6.08.26-9.11-.12-.84-.89-1.42-1.72-1.3-.27.04-.53.15-.75.32-1.71,1.47-3.91,2.23-6.16,2.13-5.25-.35-7.27-4.93-12.61-3.38-5.58,1.57-11.46,2.78-16.9,4.85Z" style="fill: rgb(104, 225, 253);"/><path class="cls-6_chef-63" d="M204.17,440.65c-2.37.9-4.88,2.29-4.88,5.33.01,1.2.43,2.37,1.17,3.31,2.9,3.9,8.27,4.09,12.99,3.9,8.8-.45,17.55-1.64,26.16-3.54.59-.08,1.15-.31,1.62-.67.46-.51.74-1.15.82-1.83.61-2.97.7-6.01.27-9.01-.12-.87-.92-1.47-1.78-1.35-.28.04-.54.15-.77.33-1.71,1.4-3.88,2.11-6.09,1.99-5.25-.34-7.25-4.93-12.61-3.37-5.58,1.62-11.52,2.84-16.9,4.91Z"/><path class="cls-9_chef-63" d="M260.75,439.01c-2.37.9-4.88,2.29-4.89,5.32.03,1.21.44,2.37,1.19,3.33,2.89,3.9,8.27,4.09,12.99,3.89,8.8-.45,17.55-1.64,26.16-3.54.59-.08,1.15-.31,1.62-.67.46-.51.75-1.15.82-1.83.61-3,.7-6.08.26-9.11-.12-.84-.89-1.42-1.72-1.3-.27.04-.53.15-.75.32-1.71,1.47-3.91,2.23-6.16,2.13-5.25-.35-7.27-4.93-12.61-3.38-5.58,1.57-11.46,2.78-16.9,4.85Z"/><circle class="cls-22_chef-63 targetColor" cx="250.39" cy="159.71" r="1.69" style="fill: rgb(104, 225, 253);"/><circle class="cls-22_chef-63 targetColor" cx="247.1" cy="181.91" r="1.69" style="fill: rgb(104, 225, 253);"/><circle class="cls-22_chef-63 targetColor" cx="246.5" cy="208.57" r="1.69" style="fill: rgb(104, 225, 253);"/><circle class="cls-22_chef-63 targetColor" cx="247.5" cy="230.56" r="1.69" style="fill: rgb(104, 225, 253);"/><circle class="cls-22_chef-63 targetColor" cx="247.89" cy="263.4" r="1.69" style="fill: rgb(104, 225, 253);"/><path class="cls-22_chef-63 targetColor" d="M286.55,235.55c2.01-.22,4.05.06,5.93.8,1.81.91,3.16,3.08,2.43,4.96-.51.95-1.17,1.83-1.94,2.59-1.85,2.41-1.92,5.7-1.89,8.75l.65,89.47c0,3.05-.3,6.72-3,8.18-1.22.53-2.55.76-3.87.67-22.95.29-45.89.53-68.83.72-2.39,0-5.21-.19-6.42-2.25-.49-1.01-.72-2.13-.67-3.26-1.22-35.48,2.13-70.97,9.97-105.6.18-1.35.74-2.62,1.62-3.67,1.36-1.36,8.97.29,11.01.25,6.2-.11,12.39-.35,18.58-.53l36.43-1.09Z" style="fill: rgb(104, 225, 253);"/><path class="cls-8_chef-63" d="M286.55,235.55c2.01-.22,4.05.06,5.93.8,1.81.91,3.16,3.08,2.43,4.96-.51.95-1.17,1.83-1.94,2.59-1.85,2.41-1.92,5.7-1.89,8.75l.65,89.47c0,3.05-.3,6.72-3,8.18-1.22.53-2.55.76-3.87.67-22.95.29-45.89.53-68.83.72-2.39,0-5.21-.19-6.42-2.25-.49-1.01-.72-2.13-.67-3.26-1.22-35.48,2.13-70.97,9.97-105.6.18-1.35.74-2.62,1.62-3.67,1.36-1.36,8.97.29,11.01.25,6.2-.11,12.39-.35,18.58-.53l36.43-1.09Z"/></g><path class="cls-1_chef-63" d="M285.71,71.13c-2.23.89-4.58,1.46-6.97,1.69l-1.39,18.33c-1.3-.26-2.59-.57-3.82-1.02-1.53-.56-2.95-1.32-4.14-2.45-.21-.19-.4-.39-.51-.65-.01-.02-.01-.03-.02-.05-.21-.55.04-1.16.28-1.7,1.51-3.49,2.34-7.27,2.43-11.07.02-1.1-.02-2.25-.49-3.25-.83-1.78-2.77-2.72-4.59-3.42-3.23-1.25-6.58-2.19-9.98-2.82,2.96-.54,6.03-.08,9.01-.53,4.96-.75,9.43-4.22,11.38-8.85.53,4-1.54,8.23-5.04,10.24.34,0,.67-.13.93-.34.71.9,1.86,1.38,3,1.52,1.14.14,2.29-.03,3.42-.21,1.62-.26,3.26-.58,4.7-1.37,1.44-.78,2.66-2.13,2.9-3.75.17-1.12-.14-2.18-.62-3.18.23.04.47.09.7.15,5.63,1.6,3.19,11.14-1.18,12.73Z"/></svg>