<svg version="1.1" id="Layer_1" xmlns="http://www.w3.org/2000/svg" xmlns:xlink="http://www.w3.org/1999/xlink" x="0px" y="0px" viewBox="0 0 500 500" style="width: 178px;" xml:space="preserve" data-imageid="soap-95" imageName="Soap" class="illustrations_image">
<style type="text/css">
	.st0_soap-95{fill:#D1D3D4;}
	.st1_soap-95{fill:#231F20;}
	.st2_soap-95{fill:#FFFFFF;}
	.st3_soap-95{fill:none;}
	.st4_soap-95{fill:#68E1FD;}
</style>
<g id="Washbasin_soap-95">
	<path class="st0_soap-95" d="M394.7,355.8c40.2-93.3,40.2-172.2,40.2-172.2H65.5c0,0-6.9,93.1,38,176.4c8.3,15.4,23.2,24.9,39.2,24.9h210.8&#10;&#9;&#9;C371,384.8,387,373.6,394.7,355.8z"/>
	<path class="st1_soap-95" d="M353.5,385.5H142.7c-16.2,0-31.4-9.7-39.8-25.2c-44.5-82.5-38.1-175.8-38.1-176.8c0-0.4,0.3-0.6,0.7-0.6h369.4&#10;&#9;&#9;c0.4,0,0.7,0.3,0.7,0.7c0,0.8-0.5,80.1-40.2,172.5C387.6,373.9,371.2,385.5,353.5,385.5z M66.1,184.2c-0.5,8.4-4.4,96.8,38,175.4&#10;&#9;&#9;c8.2,15.1,22.9,24.5,38.6,24.5h210.7c17.2,0,33.1-11.2,40.6-28.6c37.7-87.5,40-163.2,40.1-171.3L66.1,184.2z"/>
	<path class="st2_soap-95" d="M366.1,325.3H133.9c-9.1,0-17.2-6.1-20.9-15.4L67.1,191.1c-6.5-17,4.5-35.9,20.9-35.9h324&#10;&#9;&#9;c16.4,0,27.4,19,20.9,35.9L387,309.9C383.3,319.3,375.1,325.3,366.1,325.3z"/>
	<path class="st1_soap-95" d="M366.1,326H133.9c-9.3,0-17.8-6.2-21.5-15.9L66.5,191.3c-3.4-8.8-2.3-18.8,3-26.6c4.5-6.5,11.2-10.2,18.5-10.2&#10;&#9;&#9;h324c7.3,0,14.1,3.7,18.5,10.2c5.3,7.8,6.5,17.8,3,26.6l-45.9,118.9C383.9,319.8,375.4,326,366.1,326z M88,155.9&#10;&#9;&#9;c-6.9,0-13.2,3.5-17.4,9.6c-5.1,7.5-6.1,16.9-2.8,25.3l45.9,118.8c3.5,9.1,11.4,15,20.2,15h232.2c8.8,0,16.7-5.9,20.2-15&#10;&#9;&#9;l45.9-118.9c3.3-8.4,2.3-17.9-2.8-25.3c-4.2-6.1-10.5-9.6-17.4-9.6L88,155.9z"/>
	<line class="st3_soap-95" x1="286.5" y1="340.5" x2="259.4" y2="361.1"/>
	<path class="st1_soap-95" d="M259.4,361.8c-0.4,0-0.7-0.3-0.7-0.7c0-0.2,0.1-0.4,0.3-0.6l27.2-20.6c0.3-0.2,0.7-0.2,1,0.1c0,0,0,0,0,0&#10;&#9;&#9;c0.2,0.3,0.2,0.7-0.1,1c0,0,0,0,0,0l-27.2,20.6C259.7,361.7,259.5,361.8,259.4,361.8z"/>
	<line class="st3_soap-95" x1="300.7" y1="338.6" x2="281.8" y2="353.8"/>
	<path class="st1_soap-95" d="M281.8,354.5c-0.2,0-0.4-0.1-0.5-0.3c-0.2-0.3-0.2-0.7,0.1-1c0,0,0,0,0,0l18.8-15.2c0.3-0.2,0.7-0.2,1,0.1&#10;&#9;&#9;c0.2,0.3,0.2,0.7-0.1,1l-18.8,15.2C282.2,354.4,282,354.4,281.8,354.5z"/>
	<path class="st1_soap-95" d="M412.1,196.6l-7.8,18.8l-32.8,78.9c-3,7.6-10.3,12.6-18.5,12.7H147c-8.2-0.1-15.5-5.1-18.5-12.7l-32.8-78.9&#10;&#9;&#9;l-7.8-18.8c-5.8-13.9,4-29.5,18.5-29.5h287.3C408.2,167.1,418,182.7,412.1,196.6z"/>
	<path class="st1_soap-95" d="M353,307.8H147c-8.5-0.1-16-5.3-19.2-13.1l-40.7-97.7c-2.9-7-2.2-14.9,2-21.2c3.8-5.8,10.2-9.4,17.2-9.4h287.3&#10;&#9;&#9;c6.9,0,13.4,3.5,17.2,9.4c4.2,6.3,4.9,14.3,2,21.2l0,0l-40.7,97.7C369,302.5,361.5,307.6,353,307.8z M106.3,167.9&#10;&#9;&#9;c-6.4,0-12.4,3.3-15.9,8.7c-3.9,5.9-4.6,13.3-1.9,19.8l40.7,97.7c2.9,7.3,9.9,12.1,17.8,12.2h206c7.9-0.1,14.9-4.9,17.8-12.2&#10;&#9;&#9;l40.7-97.7c2.7-6.5,2-13.9-1.9-19.8c-3.5-5.4-9.5-8.7-15.9-8.7L106.3,167.9z M412.1,196.6L412.1,196.6z"/>
</g>
<g id="Water_in_the_Washbasin_soap-95">
	<path class="st4_soap-95 targetColor" d="M404.3,215.5L404.3,215.5c-11.9,25.5-21.9,52.6-32.8,78.8c-3,7.6-10.3,12.6-18.5,12.7H147&#10;&#9;&#9;c-8.2-0.1-15.5-5.1-18.5-12.7l-32.9-78.9c3.2-2.1,6.9-3.2,10.7-3.2c14.3,0,29.1,4.8,43.1,3c8.6-1.1,16.7-5.2,25.3-5.9&#10;&#9;&#9;c12-1,24,3.2,36,2.9c11.9-0.3,23.8-0.1,35.6-0.1c9.6,0,19.6-1.1,29-0.6c8.9,0.5,17,5.7,26.1,5.5c8.9-0.2,17.5-4.5,26.4-4.9&#10;&#9;&#9;c6-0.2,12,1.4,18,2.3C365,217.4,386.8,204.3,404.3,215.5z" style="fill: rgb(104, 225, 253);"/>
	<path class="st1_soap-95" d="M352.9,307.7H147c-8.4-0.1-16-5.3-19.1-13.1L95,215.7c-0.1-0.3,0-0.7,0.3-0.9c3.3-2.1,7.1-3.3,11-3.3l0,0&#10;&#9;&#9;c6.2,0.2,12.3,0.7,18.4,1.7c8.2,1.1,16.7,2.3,24.7,1.3c4-0.6,8-1.6,11.9-2.9c4.4-1.5,8.9-2.5,13.5-3.1c6.5-0.5,13,0.4,19.4,1.4&#10;&#9;&#9;c5.5,1,11.1,1.5,16.6,1.5c8.2-0.2,16.6-0.2,24.7-0.1c3.6,0,7.3,0,10.9,0c3.8,0,7.8-0.2,11.6-0.3c5.8-0.2,11.8-0.5,17.5-0.2&#10;&#9;&#9;c4.2,0.2,8.2,1.5,12.1,2.7c4.5,1.4,9.1,2.9,13.9,2.7c4.5-0.1,8.9-1.3,13.2-2.4c4.3-1.3,8.7-2.1,13.2-2.5c4.4,0,8.9,0.5,13.2,1.4&#10;&#9;&#9;c1.7,0.3,3.3,0.6,5,0.9c7.4,1.1,15.5-0.3,23.3-1.6c12-2.1,24.5-4.2,35.2,2.6l0,0l-0.4,0.6l0.4-0.6c0.3,0.2,0.4,0.6,0.3,0.9&#10;&#9;&#9;c-8.1,17.2-15.4,35.4-22.5,53.1c-3.4,8.5-6.9,17.2-10.4,25.7C369,302.4,361.4,307.6,352.9,307.7z M96.5,215.7l32.6,78.3&#10;&#9;&#9;c2.9,7.3,10,12.2,17.9,12.3h206c7.9-0.1,14.9-4.9,17.9-12.2c3.5-8.5,7-17.2,10.4-25.7c7-17.5,14.2-35.5,22.2-52.6&#10;&#9;&#9;c-10.2-6.2-21.7-4.2-33.8-2.1c-7.9,1.4-16.1,2.8-23.8,1.6c-1.7-0.2-3.3-0.6-5-0.9c-4.3-0.9-8.6-1.4-13-1.4&#10;&#9;&#9;c-4.4,0.3-8.7,1.1-12.9,2.4c-4.4,1.2-8.9,2.4-13.5,2.5c-5.1,0.1-9.8-1.4-14.4-2.8c-4-1.3-7.8-2.4-11.8-2.7&#10;&#9;&#9;c-5.6-0.3-11.6-0.1-17.3,0.2c-3.9,0.2-7.8,0.3-11.7,0.3c-3.6,0-7.3,0-10.9,0c-8.1-0.1-16.5-0.1-24.7,0.1c-5.7,0-11.3-0.5-16.9-1.5&#10;&#9;&#9;c-6.3-0.9-12.7-1.9-19.1-1.4c-4.5,0.5-8.9,1.5-13.2,3c-3.9,1.3-8,2.3-12.1,2.9c-8.2,1-16.7-0.2-25-1.3c-6-1-12.1-1.6-18.3-1.7l0,0&#10;&#9;&#9;C102.8,213,99.4,213.9,96.5,215.7L96.5,215.7z"/>
	<path class="st2_soap-95" d="M133.3,230.2c-3.4,0-6.9-0.3-10.3-0.8c-0.4-0.1-0.6-0.4-0.6-0.8c0.1-0.4,0.4-0.6,0.8-0.6c6.7,1,13.4,1,20.1,0&#10;&#9;&#9;c0.4-0.1,0.7,0.2,0.8,0.6s-0.2,0.7-0.6,0.8C140.1,229.9,136.7,230.2,133.3,230.2z"/>
	<path class="st2_soap-95" d="M148.2,247.2c-2.2,0-4.3-0.1-6.5-0.3c-0.4-0.1-0.6-0.4-0.6-0.8c0.1-0.3,0.4-0.6,0.7-0.6c7,0.6,14,0.2,20.9-1.2&#10;&#9;&#9;c0.4-0.1,0.7,0.2,0.8,0.5c0.1,0.4-0.2,0.7-0.5,0.8C158.1,246.7,153.2,247.2,148.2,247.2z"/>
	<path class="st2_soap-95" d="M143.6,275.3c-2.7,0-5.4-0.5-8-1.5c-0.4-0.1-0.5-0.5-0.4-0.9c0,0,0,0,0,0c0.1-0.4,0.5-0.5,0.9-0.4&#10;&#9;&#9;c4.6,1.7,9.6,1.8,14.3,0.2c0.4-0.1,0.7,0,0.9,0.4c0,0,0,0,0,0c0.1,0.4-0.1,0.8-0.4,0.9c0,0,0,0,0,0&#10;&#9;&#9;C148.6,274.9,146.1,275.3,143.6,275.3z"/>
</g>
<g id="Hands_soap-95">
	<path class="st2_soap-95" d="M185,393.9c5.4-22.1,17.9-72,23.4-79.2c7-9.2,32.2-13.2,44.4-22.9c12.2-9.7,38.6-33.8,39.2-45.2&#10;&#9;&#9;s-33.7,15-33.7,15c17.8-17.5,33.4-36.6,28.5-39.8s-41,31.2-41,31.2c20.3-20.7,37-39.4,31.3-43.5s-40.6,31.7-40.6,31.7&#10;&#9;&#9;c26.8-32.9,23.6-37.4,18.3-38.2s-51.6,50-51.6,50c10.2-26,8.1-42.3,0-36.6s-23.6,39.4-30.1,52.5c-6,12-59.4,110.1-67.4,124.9&#10;&#9;&#9;L185,393.9z"/>
	<path class="st1_soap-95" d="M185,394.5h-79.3c-0.2,0-0.5-0.1-0.6-0.3c-0.1-0.2-0.1-0.5,0-0.7c6.2-11.5,61.3-112.6,67.4-124.9&#10;&#9;&#9;c1-2,2.2-4.4,3.5-7.1c7.9-16.2,19.8-40.6,26.8-45.6c2.7-1.9,4.4-1.3,5.4-0.5c4.3,3.4,3,17.6-3.1,34.5&#10;&#9;&#9;c11.3-12.3,44.1-47.5,49.6-47.5h0.2c1.3,0.2,3.2,0.7,3.9,2.6c1,2.6,0.3,8.2-14.5,27.5c11.1-10.8,28.8-26.6,33.2-23.5&#10;&#9;&#9;c0.8,0.6,1.3,1.5,1.4,2.6c0.4,4.4-5.2,12.7-18.7,27.4c10.9-9.5,23.9-19.8,27-17.7c0.7,0.5,1.1,1.3,1.2,2.1&#10;&#9;&#9;c0.5,5.6-10.8,19.4-23.3,32.4c8.5-6,21.9-14.6,26.1-12.3c0.7,0.4,1.6,1.2,1.5,3.2c-0.7,12.3-29.5,37.8-39.5,45.7&#10;&#9;&#9;c-5.8,4.6-14.3,7.9-22.6,11c-9.3,3.6-18.1,7-21.7,11.7c-5.4,7-18.1,57.5-23.2,78.9C185.6,394.3,185.3,394.5,185,394.5z&#10;&#9;&#9; M106.9,393.1h77.5c6.5-26.7,18-71.9,23.4-78.9c3.9-5.1,12.9-8.5,22.4-12.2c8.2-3.1,16.6-6.4,22.2-10.8c12.5-9.9,38.4-33.8,39-44.7&#10;&#9;&#9;c0.1-1.5-0.5-1.8-0.7-1.9c-4-2.1-21.2,9.3-31.8,17.5c-0.3,0.2-0.7,0.2-1-0.1c-0.3-0.3-0.3-0.7,0-1c0,0,0,0,0,0&#10;&#9;&#9;c18-17.6,29.7-32.8,29.2-37.6c0-0.4-0.2-0.8-0.6-1.1c-2.8-1.8-22.6,14.4-40.2,31.2c-0.3,0.3-0.7,0.3-1,0c0,0,0,0,0,0&#10;&#9;&#9;c-0.3-0.3-0.3-0.7,0-1c0,0,0,0,0,0c15.3-15.6,32.8-34.4,32.2-40.9c0-0.6-0.3-1.2-0.8-1.5c-2-1.4-14.6,5.9-39.7,31.6&#10;&#9;&#9;c-0.3,0.2-0.8,0.1-1-0.2c-0.2-0.2-0.2-0.5,0-0.7c15.8-19.4,23.1-31.3,21.5-35.4c-0.4-0.9-1.2-1.4-2.8-1.7h-0.1&#10;&#9;&#9;c-3.6,0-28.8,25.5-50.9,49.8c-0.2,0.3-0.6,0.3-0.9,0.1c-0.3-0.2-0.4-0.5-0.3-0.9c7.5-19.2,8.4-33.6,4.8-36.3&#10;&#9;&#9;c-0.9-0.7-2.2-0.5-3.8,0.6c-6.8,4.7-19,30-26.3,45c-1.3,2.8-2.5,5.2-3.5,7.1C167.8,281.2,115.3,377.7,106.9,393.1L106.9,393.1z"/>
	<path class="st1_soap-95" d="M215.4,287.5c-0.4,0-0.7-0.3-0.7-0.7c0-0.1,0-0.2,0.1-0.3c9.4-18.7-11.7-32.7-11.9-32.8&#10;&#9;&#9;c-0.3-0.2-0.4-0.6-0.2-1c0,0,0,0,0,0c0.2-0.3,0.7-0.4,1-0.2c0,0,0,0,0,0c0.2,0.1,22.4,14.8,12.4,34.6&#10;&#9;&#9;C215.9,287.4,215.6,287.5,215.4,287.5z"/>
	<path class="st0_soap-95" d="M239.2,291.4c-0.2,0-0.4,0-0.6-0.1c-0.8-0.1-1.6-0.6-2-1.4c-0.4-0.8-0.6-1.7-0.7-2.6c0-0.8-0.2-1.7-0.7-2.4&#10;&#9;&#9;c-0.5-0.6-1.1-1.1-1.7-1.5c-0.8-0.5-1.5-1.1-2.1-1.8c-1.2-1.8-2.1-3.7-2.6-5.8c-0.8-2.5-1.6-4.8-3.5-6.7c-0.8-0.7-1.6-1.4-2.5-2&#10;&#9;&#9;c-0.9-0.6-1.7-1.3-2.5-2c-1.6-1.5-3-4-2-6.5c0.1-0.4,0.6-0.5,0.9-0.4c0.4,0.1,0.5,0.6,0.4,0.9c-0.7,1.8,0.5,3.8,1.7,4.9&#10;&#9;&#9;c0.7,0.7,1.5,1.3,2.4,1.9c0.9,0.6,1.8,1.3,2.6,2.1c2.1,2.1,3,4.7,3.9,7.3c0.5,1.9,1.4,3.7,2.4,5.4c0.5,0.6,1.1,1.1,1.7,1.4&#10;&#9;&#9;c0.8,0.5,1.5,1.1,2.1,1.8c0.6,0.9,0.9,2,0.9,3.1c0,0.7,0.2,1.4,0.5,2.1c0.2,0.4,0.6,0.6,1,0.7c0.6,0.1,1.3,0,1.8-0.5&#10;&#9;&#9;c0.9-0.9,1.4-2.2,1.3-3.5c0-0.6,0-1.3-0.1-2c-0.1-0.8-0.1-1.7-0.1-2.5c0.2-2.9,1.6-5.5,2.8-7.8l0.8-1.5c0.5-1,1.2-0.9,1.5-0.8&#10;&#9;&#9;c0.4,0.1,0.6,0.5,0.6,0.9c0,0.4-0.4,0.8-0.8,0.9c-0.1,0-0.1,0-0.2,0l-0.6,1.2c-1.2,2.2-2.5,4.6-2.6,7.2c0,0.8,0,1.5,0.1,2.3&#10;&#9;&#9;c0.1,0.7,0.1,1.4,0.1,2.1c0.1,1.7-0.6,3.4-1.8,4.5C240.9,291,240.1,291.3,239.2,291.4z"/>
	<path class="st2_soap-95" d="M341.4,330.5c1.4,6.1-0.2,41.6-1.4,63.4h70.6c-7.8-26.2-27.4-92.4-27.4-96.4c0-4.9,0.1-52.4-5.8-65.2&#10;&#9;&#9;s-14.4,0.3-14.9,20.5c0,0-12.4-65.2-18.5-65.6c-5.6-0.4-12.3,6.2-6.3,30.4c-2.5-8.9-7.9-25.9-12-24.7c-7.5,2.2-1.8,17.4,2.3,32.2&#10;&#9;&#9;c0,0-9.6-32-17.7-26.2c-6,4.2,3.7,34.3,5.4,39.3c-1.5-4.4-9.4-27-14-24.1c-9.5,6,7.7,54.3,15.3,70.2S339.5,321.6,341.4,330.5z"/>
	<path class="st1_soap-95" d="M410.7,394.5h-70.6c-0.2,0-0.4-0.1-0.5-0.2c-0.1-0.1-0.2-0.3-0.2-0.5c1.1-21,2.7-57.1,1.4-63.2l0,0&#10;&#9;&#9;c-1.1-5.1-6.7-14.7-12.6-24.9c-4.2-7.2-8.5-14.7-11.6-21.3c-7.2-14.9-25.3-64.6-15-71.1c0.6-0.4,1.4-0.5,2.1-0.2&#10;&#9;&#9;c2.3,0.8,4.8,5.1,7.1,10c-5-19.7-1.9-24-0.6-24.9c1.1-0.8,2.5-1,3.8-0.6c3.3,1.1,6.6,6.4,9.2,12.1c-1.6-6.4-2.4-11.9-0.6-15.1&#10;&#9;&#9;c0.7-1.2,1.8-2.2,3.2-2.5c0.6-0.2,1.3-0.1,1.9,0.3c2.5,1.4,5.2,7.2,7.5,14c-1-9.8,0.9-14.7,3-17.2c1.5-1.9,3.8-2.9,6.1-2.7&#10;&#9;&#9;c5.5,0.4,14.6,43.3,18,60.8c1.1-11.3,4.8-19.8,9.2-20.7c1.7-0.4,4.3,0.3,6.6,5.4c3.6,7.9,5.7,30.7,5.9,64.2v1.3&#10;&#9;&#9;c0,2.7,10.3,38.6,27.4,96.2c0.1,0.2,0,0.4-0.1,0.6C411.2,394.5,410.9,394.6,410.7,394.5z M340.8,393.1h69&#10;&#9;&#9;c-8.4-28.2-27.1-91.7-27.2-95.7v-1.3c-0.2-33.4-2.2-56-5.7-63.7c-1.1-2.4-2.8-5.1-5.1-4.6c-3.8,0.8-8.1,10.5-8.5,24.9&#10;&#9;&#9;c0,0.4-0.3,0.6-0.6,0.7c-0.4,0-0.7-0.2-0.8-0.6c-6.1-31.8-14.4-64.8-17.8-65.1c-1.9-0.1-3.8,0.7-5,2.2c-2.1,2.5-5,9.4-0.6,27.4&#10;&#9;&#9;c0.1,0.4-0.1,0.7-0.5,0.8c-0.4,0.1-0.7-0.1-0.8-0.5c0,0,0,0,0,0c-3.9-13.9-7.7-22.7-10.3-24.1c-0.2-0.2-0.5-0.2-0.8-0.1&#10;&#9;&#9;c-1,0.3-1.9,0.9-2.3,1.8c-2.2,4.1,0.5,13.5,3.4,23.5c0.6,2,1.2,4,1.7,6c0.1,0.4-0.1,0.8-0.5,0.9c-0.4,0.1-0.8-0.1-0.9-0.5&#10;&#9;&#9;c-2-6.6-8.4-24.3-14-26.2c-0.9-0.3-1.8-0.2-2.6,0.4c-4,2.8-0.1,21.4,5.6,38.5c0.1,0.4-0.1,0.8-0.4,0.9c-0.4,0.1-0.8-0.1-0.9-0.4&#10;&#9;&#9;c-3.5-10.3-8.7-22.7-12.1-23.9c-0.3-0.1-0.6-0.1-0.9,0.1c-8.5,5.3,6.7,50.7,15.6,69.3c3.1,6.5,7.4,14,11.6,21.2&#10;&#9;&#9;c5.9,10.3,11.5,20,12.7,25.3l0,0C343.5,336.5,341.9,372,340.8,393.1z"/>
</g>
<g id="Soap_soap-95">
	<path class="st1_soap-95" d="M370.1,211.9c5.4,3.7,8.7,9.6,9.2,16.1c1,11.3-16.3,49.8-26.1,64.7s-20.5,14-28.2,14.3s-15.3-6.7-21.2-12.2&#10;&#9;&#9;s-4.8-12.5-5-19.2S345.2,206.2,370.1,211.9z"/>
	<path class="st1_soap-95" d="M324.6,307.8c-8.1,0-15.7-7.1-21.3-12.4c-5.2-4.9-5.2-10.9-5.2-16.8c0-1,0-2,0-3c-0.1-5.2,21.4-35,42.2-52&#10;&#9;&#9;c12.2-10,22.3-14.2,30-12.5c0.1,0,0.2,0,0.2,0.1c5.6,3.8,9.1,10,9.6,16.7c1.1,11.7-16.9,50.9-26.2,65.2s-19.6,14.4-27.1,14.6h-1.7&#10;&#9;&#9;L324.6,307.8z M366.9,212.3c-6.8,0-15.5,4.3-25.6,12.5c-21.7,17.8-41.7,47.2-41.6,50.8c0,1,0,2,0,3c0,5.8,0,11.2,4.7,15.6&#10;&#9;&#9;c5.5,5.1,13,12.1,20.6,12h1.7c7.6-0.2,17.1-0.4,25.9-13.9c10.2-15.8,26.9-53.5,26-64.3c-0.5-6.2-3.7-11.9-8.7-15.5&#10;&#9;&#9;C368.8,212.4,367.9,212.3,366.9,212.3L366.9,212.3z"/>
	<path class="st2_soap-95" d="M330.5,206.7c0,0,3.6-9.9,22.5-4.8s22,13.9,19.4,32.9s-19.3,52.4-31.2,59.9s-34.7,2.6-42.3-11.7&#10;&#9;&#9;S321.3,212.7,330.5,206.7z"/>
	<path class="st1_soap-95" d="M327.6,298.9c-3.3,0-6.5-0.4-9.6-1.3c-8.9-2.4-16-7.6-19.6-14.3c-7.6-14.4,21.3-70,31.6-77.1&#10;&#9;&#9;c0.7-1.5,5.3-9.9,23.3-5c20.1,5.4,22.4,15.2,19.9,33.7c-3,22-20.8,53.6-31.5,60.4C337.4,297.8,332.5,299,327.6,298.9z M343.2,201.1&#10;&#9;&#9;c-9.7,0-11.9,5.5-12,5.8c-0.1,0.1-0.1,0.3-0.3,0.4c-9.7,6.3-38.5,61.9-31.3,75.4c3.4,6.3,10.2,11.3,18.7,13.6s16.9,1.4,22.5-2.2&#10;&#9;&#9;c11.2-7.1,28.3-39.8,30.9-59.4c2.4-18.1,0.3-27-18.9-32.2C349.7,201.6,346.5,201.1,343.2,201.1L343.2,201.1z M330.6,206.7&#10;&#9;&#9;L330.6,206.7z"/>
	<path class="st0_soap-95" d="M329.3,288.9c-2.6,0-5.2-0.3-7.7-1c-7.1-1.9-12.8-6.1-15.7-11.4c-6.1-11.5,16.9-55.8,25.2-61.6&#10;&#9;&#9;c0.6-1.4,4.4-7.9,18.7-4.1c16.1,4.3,18,12.1,16,27s-15.1,41.8-25.2,48.2C337.1,288,333.2,289,329.3,288.9z M341.7,211&#10;&#9;&#9;c-7.6,0-9.3,4.3-9.4,4.6c-0.1,0.1-0.2,0.3-0.3,0.3c-7.7,5-30.6,49.2-24.9,59.9c2.7,5,8.1,9,14.8,10.7s13.4,1.1,17.9-1.7&#10;&#9;&#9;c8.9-5.6,22.5-31.6,24.6-47.2c1.9-14.3,0.2-21.4-15-25.5C346.8,211.4,344.3,211.1,341.7,211z M331.6,215.3L331.6,215.3z"/>
</g>
<g id="Running_Water_soap-95">
	<path class="st4_soap-95 targetColor" d="M266.2,298.8c0.6-3,1.1-6,1.6-9c0.6-4.2,1-8.5,0-12.6c-0.5-2.1-1.6-4.1-3.2-5.5c-1.5-1.1-3.2-1.9-5-2.3&#10;&#9;&#9;c-4.3-1.1-11.2,0.9-13.8-3.4c-1.7-2.6-1.3-6.6-4-8.3c-3.9-2.4-8.4,1.8-12.3-0.9c-3-2-4.2-7.4-7.4-9.7c-2.3-1.6-5.2-2-7.8-1&#10;&#9;&#9;c-1.8,0.7-4,1.9-5.3,0.5c-1.1-1.1-0.5-2.9,0.2-4.3c1.4-2.9,2.9-5.8,4.3-8.7c1.6-3.2,3.4-6.5,6.3-8.5c1.9-1.1,3.8-2,5.8-2.8&#10;&#9;&#9;c8.5-4.1,10.7-12.2,12.1-20.7c0.2-1.2,3.4-20.3,2.6-20.3h16.9c0.6,6.9,1.6,13.8,2.8,20.6c1,5.9,2.4,11.7,4,17.4&#10;&#9;&#9;c1.5,5.6,4.3,9.7,6.2,15c1.1,3,1,6.7-1.1,9.2c-1.6,1.9-4.2,3.1-4.8,5.5c-0.5,2.1,0.7,4.2,2.4,5.5c1.8,1.2,3.7,2.1,5.7,2.8&#10;&#9;&#9;c8.4,3.8,14.4,11.9,17.5,20.5s3.8,18.1,3.9,27.3" style="fill: rgb(104, 225, 253);"/>
	<path class="st1_soap-95" d="M293.7,305.9c-0.4,0-0.7-0.3-0.7-0.7c-0.1-8.9-0.7-18.4-3.9-27.1c-3.4-9.4-9.6-16.7-17.1-20.1&#10;&#9;&#9;c-0.5-0.2-1-0.4-1.5-0.6c-1.5-0.6-3-1.3-4.4-2.3c-1.6-1.3-3.3-3.7-2.6-6.3c0.5-1.7,1.8-2.9,3.1-4c0.7-0.5,1.3-1.1,1.9-1.8&#10;&#9;&#9;c2-2.5,1.8-6.1,0.9-8.5c-0.8-2.1-1.7-4.2-2.7-6.3c-1.4-2.8-2.6-5.8-3.5-8.8c-1.6-6-2.9-11.7-4-17.5c-1.3-7.2-2.2-13.8-2.8-20.1&#10;&#9;&#9;h-15.4c0,1.7-0.5,6.3-2.7,19.4v0.3c-1.3,8-3.4,16.8-12.5,21.2c-0.7,0.3-1.4,0.6-2.1,0.9c-1.3,0.5-2.5,1.1-3.6,1.8&#10;&#9;&#9;c-2.9,2-4.7,5.4-6.1,8.2s-2.9,5.8-4.3,8.7c-0.8,1.7-1,2.9-0.3,3.5s2,0.3,3.8-0.4l0.8-0.3c2.8-1.1,6-0.6,8.4,1.1&#10;&#9;&#9;c1.8,1.3,2.9,3.3,4,5.3s2,3.5,3.4,4.5c1.8,1.2,3.7,0.8,5.8,0.4s4.4-0.9,6.5,0.5c1.8,1.1,2.4,3.2,2.9,5.1c0.3,1.2,0.7,2.3,1.2,3.4&#10;&#9;&#9;c1.6,2.5,5.1,2.6,8.5,2.6c1.7,0,3.4,0.1,5,0.4c1.9,0.4,3.7,1.2,5.3,2.4c1.7,1.6,2.9,3.6,3.5,5.9c1.1,4.3,0.6,8.9,0.1,12.9&#10;&#9;&#9;c-0.4,3-1,6.1-1.6,9.1c-0.1,0.4-0.5,0.6-0.8,0.5c0,0,0,0,0,0c-0.4-0.1-0.6-0.4-0.5-0.8c0,0,0,0,0,0c0.6-3,1.1-6,1.6-9&#10;&#9;&#9;c0.5-3.8,1-8.3,0-12.3c-0.4-2-1.5-3.8-3-5.2c-1.4-1-3-1.8-4.7-2.1c-1.5-0.3-3.1-0.4-4.6-0.4c-3.6-0.1-7.6-0.1-9.6-3.3&#10;&#9;&#9;c-0.7-1.2-1.1-2.4-1.4-3.8c-0.5-1.8-0.9-3.5-2.3-4.3c-1.7-1-3.5-0.7-5.5-0.3c-2.2,0.5-4.6,0.9-6.8-0.6c-1.6-1.1-2.7-3.1-3.8-4.9&#10;&#9;&#9;s-2.1-3.7-3.6-4.8c-2.1-1.5-4.7-1.8-7.1-0.9l-0.7,0.3c-1.7,0.7-3.8,1.6-5.3,0.1c-1.1-1.1-1-2.8,0.1-5.1c1.4-2.9,2.9-5.8,4.3-8.7&#10;&#9;&#9;c1.5-2.9,3.3-6.6,6.5-8.8c1.2-0.8,2.5-1.5,3.9-2c0.7-0.3,1.3-0.6,2-0.9c8.5-4.1,10.4-12.2,11.7-20.2v-0.3&#10;&#9;&#9;c2.1-12.9,2.8-18.5,2.7-19.5c-0.1-0.1-0.1-0.2-0.1-0.4c0-0.4,0.3-0.7,0.7-0.7h16.9c0.4,0,0.7,0.3,0.7,0.6&#10;&#9;&#9;c0.6,6.4,1.5,13.2,2.8,20.6c1,5.8,2.3,11.4,3.9,17.4c0.9,2.9,2,5.8,3.4,8.5c1,2,1.9,4.1,2.8,6.4c1.3,3.6,0.8,7.4-1.2,9.9&#10;&#9;&#9;c-0.6,0.7-1.3,1.4-2,2c-1.2,1-2.3,1.9-2.6,3.3c-0.5,1.8,0.7,3.7,2.1,4.8c1.2,0.9,2.6,1.6,4,2.1c0.5,0.2,1,0.4,1.5,0.6&#10;&#9;&#9;c7.8,3.6,14.4,11.2,17.9,20.9c3.2,8.9,3.8,18.5,4,27.5c0,0.4-0.3,0.7-0.7,0.7C293.8,305.9,293.8,305.9,293.7,305.9L293.7,305.9z&#10;&#9;&#9; M240.3,181.9L240.3,181.9z M240.3,181.9L240.3,181.9z"/>
	<path class="st2_soap-95" d="M285.9,298.4h-0.1c-0.4,0-0.6-0.4-0.6-0.8c0,0,0,0,0,0c2.1-13.6-2-21.1-2.1-21.2c-0.2-0.3-0.1-0.7,0.2-1&#10;&#9;&#9;c0,0,0,0,0.1,0c0.3-0.2,0.8-0.1,1,0.2c0,0,0,0,0,0.1c0.2,0.3,4.4,8,2.2,22.1C286.6,298.1,286.3,298.4,285.9,298.4z"/>
	<path class="st2_soap-95" d="M252.3,225.5c-0.4,0-0.7-0.3-0.7-0.6l-2.3-29.3c0-0.4,0.3-0.7,0.6-0.8c0.4,0,0.7,0.3,0.8,0.6l2.3,29.3&#10;&#9;&#9;C253,225.1,252.7,225.5,252.3,225.5C252.4,225.5,252.4,225.5,252.3,225.5L252.3,225.5z"/>
	<path class="st2_soap-95" d="M238.6,234c-0.1,0-0.1,0-0.2,0c-0.4-0.1-0.6-0.5-0.5-0.9l4.8-16.7c0.1-0.4,0.5-0.6,0.8-0.5c0,0,0,0,0,0&#10;&#9;&#9;c0.4,0.1,0.6,0.5,0.5,0.9l-4.8,16.7C239.1,233.8,238.9,234,238.6,234z"/>
	<path class="st2_soap-95" d="M219.4,241c-0.2,0-0.4-0.1-0.5-0.2c-0.3-0.3-0.3-0.7,0-1l6.9-6.9c0.3-0.3,0.7-0.3,1,0s0.3,0.7,0,1l0,0&#10;&#9;&#9;l-6.9,6.9C219.8,240.9,219.6,241,219.4,241z"/>
	<path class="st2_soap-95" d="M265.8,264.1c-0.2,0-0.5-0.1-0.6-0.3c-2-3-4.9-5.2-8.4-6.1c-0.6-0.2-1.2-0.3-1.9-0.4c-1.8-0.2-3.5-0.9-5-1.8&#10;&#9;&#9;c-2-1.6-3.1-4-3.1-6.6c0-2.4,0.3-4.7,1-7c0.1-0.4,0.5-0.6,0.9-0.5c0.4,0.1,0.6,0.5,0.5,0.8c0,0,0,0,0,0c-0.7,2.1-1,4.4-1,6.6&#10;&#9;&#9;c0,2.1,0.9,4.1,2.6,5.5c1.4,0.8,2.9,1.4,4.4,1.6c0.6,0.1,1.3,0.3,2,0.4c3.8,1.1,7,3.4,9.2,6.7c0.2,0.3,0.1,0.8-0.2,1c0,0,0,0,0,0&#10;&#9;&#9;C266,264.1,265.9,264.1,265.8,264.1z"/>
</g>
<g id="Water_Tap_soap-95">
	<rect x="236.8" y="173.9" class="st0_soap-95" width="26.3" height="14.6"/>
	<path class="st1_soap-95" d="M263.1,189.2h-26.3c-0.4,0-0.7-0.3-0.7-0.7v-14.6c0-0.4,0.3-0.7,0.7-0.7h26.3c0.4,0,0.7,0.3,0.7,0.7&#10;&#9;&#9;c0,0,0,0,0,0v14.6C263.8,188.9,263.5,189.2,263.1,189.2L263.1,189.2z M237.5,187.8h24.9v-13.2h-24.9V187.8z"/>
	<path class="st0_soap-95" d="M221.9,155.2H278l0,0v16.4c0,2.2-1.8,4-4,4h-48.1c-2.2,0-4-1.8-4-4L221.9,155.2L221.9,155.2z"/>
	<path class="st1_soap-95" d="M272.4,176.3h-44.9c-3.5,0-6.3-2.8-6.3-6.3v-14.8c0-0.4,0.3-0.7,0.7-0.7H278c0.4,0,0.7,0.3,0.7,0.7&#10;&#9;&#9;c0,0,0,0,0,0V170C278.7,173.5,275.9,176.3,272.4,176.3z M222.6,155.9V170c0,2.7,2.2,4.9,4.9,4.9h44.9c2.7,0,4.9-2.2,4.9-4.9v-14.1&#10;&#9;&#9;L222.6,155.9z"/>
	<path class="st2_soap-95" d="M272.8,159h-45.6c-2.9,0-5.2-2.4-5.2-5.2c0-0.5,0.1-1,0.2-1.5l12.6-42.8c0.6-2,2.4-3.4,4.5-3.4h21.4&#10;&#9;&#9;c2.1,0,3.9,1.4,4.5,3.4l12.6,42.8c0.8,2.8-0.7,5.7-3.5,6.5C273.8,158.9,273.3,159,272.8,159z"/>
	<path class="st1_soap-95" d="M272.8,159.7h-45.6c-3.3,0-5.9-2.6-5.9-5.9c0-0.6,0.1-1.2,0.2-1.7l12.6-42.8c0.7-2.3,2.8-3.9,5.2-3.9h21.4&#10;&#9;&#9;c2.4,0,4.5,1.6,5.2,3.9l12.6,42.8c0.9,3.1-0.9,6.4-4,7.4C273.9,159.6,273.4,159.7,272.8,159.7L272.8,159.7z M239.3,106.8&#10;&#9;&#9;c-1.8,0-3.3,1.2-3.8,2.9l-12.6,42.7c-0.7,2.4,0.7,4.9,3.1,5.6c0.4,0.1,0.8,0.2,1.3,0.2h45.6c2.5,0,4.5-2,4.5-4.5&#10;&#9;&#9;c0-0.4-0.1-0.9-0.2-1.3l-12.6-42.8c-0.5-1.7-2.1-2.9-3.8-2.9L239.3,106.8z"/>
</g>
<g id="Thumb_soap-95">
	<path class="st2_soap-95" d="M382.8,273.3c0,0,1.6-53.2-11.6-47.7c-8.4,3.5-2.4,32.7-2.4,32.7s-6.8,18.7-10.3,33.1"/>
	<path class="st1_soap-95" d="M358.5,292.2h-0.2c-0.4-0.1-0.6-0.5-0.5-0.8c0,0,0,0,0,0c3.3-13.5,9.5-31,10.2-33c-0.5-2.8-5.7-29.7,2.9-33.3&#10;&#9;&#9;c1.5-0.7,3.3-0.6,4.7,0.4c8.9,6.1,7.9,46.3,7.8,48c0,0.4-0.3,0.7-0.7,0.7c0,0,0,0,0,0c-0.4,0-0.7-0.3-0.7-0.7&#10;&#9;&#9;c0-0.4,1.1-41-7.2-46.8c-1-0.7-2.3-0.8-3.4-0.2c-6.5,2.7-3.6,24-2,31.9c0,0.1,0,0.3,0,0.4c-0.1,0.2-6.9,18.9-10.3,33&#10;&#9;&#9;C359.1,292,358.8,292.2,358.5,292.2z"/>
</g>
</svg>