<svg id="_0440_soap" xmlns="http://www.w3.org/2000/svg" viewBox="0 0 500 500" data-imageid="soap-8" imageName="Soap" class="illustrations_image" style="width: 178px;"><defs><style>.cls-1_soap-8{fill:#fff;}.cls-2_soap-8{fill:#e6e6e6;}.cls-3_soap-8{opacity:.5;}.cls-3_soap-8,.cls-4_soap-8,.cls-5_soap-8{fill:none;}.cls-4_soap-8{opacity:.3;}.cls-6_soap-8{fill:#24285b;}.cls-7_soap-8{fill:#000001;}.cls-8_soap-8{fill:#ffd200;}.cls-5_soap-8{opacity:.1;}.cls-9_soap-8{fill:#68e1fd;}</style></defs><g id="bg_soap-8"><g class="cls-4_soap-8"><path class="cls-2_soap-8" d="m119.65,75.31C19.78,127.58-14.36,267.82,48.82,368.06c28.37,45.02,78.62,82.53,167.29,82.49,249.9-.09,276.68-133.65,264.7-243.05C468.35,93.84,257.91,2.94,119.65,75.31Z"/></g><circle class="cls-2_soap-8" cx="98.71" cy="164.33" r="21.12"/><circle class="cls-2_soap-8" cx="434.64" cy="241.39" r="23.48"/><circle class="cls-2_soap-8" cx="68.38" cy="271.55" r="16.6"/><circle class="cls-2_soap-8" cx="411.16" cy="350.23" r="16.6"/><circle class="cls-2_soap-8" cx="386.33" cy="139.49" r="16.6"/></g><g id="soap_soap-8"><path class="cls-9_soap-8 targetColor" d="m385.18,274.43c0,42.49-4.93,109.19-15.7,160.56-2.22,10.52-4.68,20.38-7.37,29.29-1.14,3.73-2.32,7.27-3.54,10.63h-211.48c-18.42-50.52-32.27-145.64-32.27-200.48,0-.75,0-1.49.02-2.22.06-13.07.81-24.96,2.13-35.8,8.37-67.3,40.19-93.59,81.97-103.1,16.65-3.79,34.9-4.91,53.88-4.91,17.13,0,33.39.91,48.24,3.89,49.86,9.96,84.12,43.07,84.12,142.12Z" style="fill: rgb(104, 225, 253);"/><g class="cls-3_soap-8"><path class="cls-1_soap-8" d="m346.11,282.29c0,20.02-1.53,47.59-4.81,74.54-3.08,25.53-7.75,50.53-14.11,67.98h-150.34c-6.36-17.45-11.97-42.45-16.05-67.98-4.3-26.95-6.9-54.53-6.9-74.54,0-1.72.02-3.39.06-5.05,1.64-86.81,45.99-98.75,98.07-98.75s92.55,11.94,94.04,98.75c.04,1.66.06,3.34.06,5.05Z"/></g><rect class="cls-6_soap-8" x="198.93" y="88.53" width="102.13" height="45.22"/><rect class="cls-8_soap-8" x="221.46" y="34.83" width="57.07" height="53.69"/><g class="cls-5_soap-8"><polygon class="cls-7_soap-8" points="278.53 56.48 221.46 74.71 221.46 34.83 278.53 34.83 278.53 56.48"/></g><path class="cls-8_soap-8" d="m331.5,53.71c-49.52-34.93-147.37-29.05-173.23-26.78v15.88c21.89-1.92,118.61-8.29,164.12,23.81,1.38.98,2.97,1.44,4.55,1.44,2.48,0,4.92-1.16,6.46-3.35,2.51-3.57,1.66-8.49-1.9-11.01Z"/><g class="cls-3_soap-8"><polygon class="cls-1_soap-8" points="297.65 286.37 270.34 286.37 270.34 259.06 229.66 259.06 229.66 286.37 202.35 286.37 202.35 327.05 229.66 327.05 229.66 354.36 270.34 354.36 270.34 327.05 297.65 327.05 297.65 286.37"/></g><g class="cls-5_soap-8"><path class="cls-7_soap-8" d="m362.11,464.28c-1.14,3.73-2.32,7.27-3.54,10.63h-211.48c-18.42-50.52-32.27-145.64-32.27-200.48,0-.75,0-1.49.02-2.22,7.89,10.23,16.43,20.59,25.67,30.99,23.45,26.39,51.35,53.09,84.54,78.7.37.29.77.6,1.14.87,31.84,24.51,68.5,48,110.7,69.33,8.2,4.14,16.61,8.22,25.23,12.18Z"/></g></g></svg>