<svg version="1.1" id="Layer_1" xmlns="http://www.w3.org/2000/svg" xmlns:xlink="http://www.w3.org/1999/xlink" x="0px" y="0px" viewBox="0 0 500 500" style="width: 151px;" xml:space="preserve" data-imageid="restaurant-56" imageName="Restaurant" class="illustrations_image">
<style type="text/css">
	.st0_restaurant-56{fill:#68E1FD;}
	.st1_restaurant-56{fill:#093F68;}
	.st2_restaurant-56{fill:#F56132;}
	.st3_restaurant-56{fill:#FFBC0E;}
	.st4_restaurant-56{fill:#FFFFFF;}
	.st5_restaurant-56{fill:#DFEAEF;}
</style>
<g id="restaurant_restaurant-56">
	<rect x="73.5" y="106.2" class="st0_restaurant-56 targetColor" width="353.1" height="295.4" style="fill: rgb(33, 48, 194);"/>
	<path class="st1_restaurant-56" d="M426.5,403.5H73.5c-1,0-1.9-0.8-1.9-1.8c0,0,0,0,0,0V106.2c0-1,0.8-1.9,1.8-1.9c0,0,0,0,0,0h353.1&#10;&#9;&#9;c1,0,1.9,0.8,1.9,1.8c0,0,0,0,0,0v295.4C428.4,402.7,427.6,403.5,426.5,403.5C426.5,403.5,426.5,403.5,426.5,403.5z M75.3,399.8&#10;&#9;&#9;h349.4V108.1H75.3L75.3,399.8z"/>
	<path class="st2_restaurant-56" d="M64.3,150.8h41.3l0,0v64.9c0,10.8-8.8,19.6-19.6,19.6h-2.1c-10.8,0-19.6-8.8-19.6-19.6l0,0L64.3,150.8&#10;&#9;&#9;L64.3,150.8z"/>
	<path class="st1_restaurant-56" d="M84.9,237.1c-12.4,0-22.5-10.1-22.5-22.5v-63.9c0-1,0.8-1.9,1.8-1.9c0,0,0,0,0,0h41.3c1,0,1.9,0.8,1.9,1.9l0,0&#10;&#9;&#9;v63.9C107.4,227.1,97.3,237.1,84.9,237.1z M66.2,152.6v62c0,10.4,8.4,18.8,18.8,18.8s18.8-8.4,18.8-18.8v-62H66.2z"/>
	<path class="st3_restaurant-56" d="M105.6,150.8h41.3l0,0v66.9c0,9.7-7.9,17.6-17.6,17.6h-6c-9.7,0-17.6-7.9-17.6-17.6L105.6,150.8L105.6,150.8&#10;&#9;&#9;L105.6,150.8z"/>
	<path class="st1_restaurant-56" d="M126.2,237.1c-12.4,0-22.5-10.1-22.5-22.5v-63.9c0-1,0.8-1.9,1.8-1.9c0,0,0,0,0,0h41.3c1,0,1.9,0.8,1.9,1.8&#10;&#9;&#9;c0,0,0,0,0,0v63.9C148.7,227.1,138.6,237.1,126.2,237.1z M107.4,152.6v62c0,10.4,8.4,18.8,18.8,18.8c10.4,0,18.8-8.4,18.8-18.8&#10;&#9;&#9;c0,0,0,0,0,0v-62H107.4z"/>
	<path class="st2_restaurant-56" d="M146.8,150.8h41.3l0,0v64.8c0,10.9-8.8,19.7-19.7,19.7h-1.9c-10.9,0-19.7-8.8-19.7-19.7L146.8,150.8&#10;&#9;&#9;L146.8,150.8L146.8,150.8z"/>
	<path class="st1_restaurant-56" d="M167.5,237.1c-12.4,0-22.4-10.1-22.5-22.5v-63.9c0-1,0.8-1.9,1.8-1.9c0,0,0,0,0,0h41.2c1,0,1.9,0.8,1.9,1.8&#10;&#9;&#9;c0,0,0,0,0,0.1v63.9C190,227.1,179.9,237.2,167.5,237.1C167.5,237.1,167.5,237.1,167.5,237.1z M148.7,152.6v62&#10;&#9;&#9;c0,10.4,8.4,18.8,18.8,18.8c10.4,0,18.8-8.4,18.8-18.8v-62H148.7z"/>
	<path class="st3_restaurant-56" d="M188.1,150.8h41.3l0,0v64.3c0,11.2-9.1,20.2-20.2,20.2h-0.8c-11.2,0-20.2-9.1-20.2-20.2L188.1,150.8&#10;&#9;&#9;L188.1,150.8z"/>
	<path class="st1_restaurant-56" d="M208.7,237.1c-12.4,0-22.5-10.1-22.5-22.5v-63.9c0-1,0.8-1.9,1.9-1.9l0,0h41.3c1,0,1.9,0.8,1.9,1.8&#10;&#9;&#9;c0,0,0,0,0,0v63.9C231.2,227.1,221.1,237.1,208.7,237.1z M190,152.6v62c0,10.4,8.4,18.8,18.8,18.8c10.4,0,18.8-8.4,18.8-18.8v-62&#10;&#9;&#9;H190z"/>
	<path class="st2_restaurant-56" d="M229.4,150.8h41.3l0,0v63.9c0,11.4-9.2,20.6-20.6,20.6c0,0,0,0,0,0l0,0c-11.4,0-20.6-9.2-20.6-20.6v0V150.8&#10;&#9;&#9;L229.4,150.8z"/>
	<path class="st1_restaurant-56" d="M250,237.1c-12.4,0-22.5-10.1-22.5-22.5v-63.9c0-1,0.8-1.9,1.9-1.9l0,0h41.3c1,0,1.9,0.8,1.9,1.9v63.9&#10;&#9;&#9;C272.5,227.1,262.4,237.1,250,237.1z M231.2,152.6v62c0,10.4,8.4,18.8,18.8,18.8c10.4,0,18.8-8.4,18.8-18.8c0,0,0,0,0,0v-62H231.2z&#10;&#9;&#9;"/>
	<path class="st3_restaurant-56" d="M270.6,150.8h41.3l0,0v64.3c0,11.2-9,20.2-20.2,20.2h-0.9c-11.2,0-20.2-9-20.2-20.2V150.8L270.6,150.8z"/>
	<path class="st1_restaurant-56" d="M291.3,237.1c-12.4,0-22.5-10.1-22.5-22.5v-63.9c0-1,0.8-1.9,1.8-1.9c0,0,0,0,0,0h41.3c1,0,1.9,0.8,1.9,1.9&#10;&#9;&#9;v63.9C313.7,227.1,303.7,237.1,291.3,237.1z M272.5,152.6v62c0,10.4,8.4,18.8,18.8,18.8c10.4,0,18.8-8.4,18.8-18.8v-62H272.5z"/>
	<path class="st2_restaurant-56" d="M311.9,150.8h41.3l0,0v64.3c0,11.1-9,20.2-20.2,20.2h-0.9c-11.2,0-20.2-9-20.2-20.2l0,0L311.9,150.8&#10;&#9;&#9;L311.9,150.8z"/>
	<path class="st1_restaurant-56" d="M332.5,237.1c-12.4,0-22.5-10.1-22.5-22.5v-63.9c0-1,0.8-1.9,1.8-1.9c0,0,0,0,0,0h41.3c1,0,1.8,0.8,1.8,1.9&#10;&#9;&#9;v63.9C355,227.1,344.9,237.1,332.5,237.1z M313.8,152.6v62c0,10.4,8.4,18.8,18.8,18.8c10.4,0,18.8-8.4,18.8-18.8c0,0,0,0,0,0v-62&#10;&#9;&#9;H313.8z"/>
	<path class="st3_restaurant-56" d="M353.2,150.8h41.3l0,0v64.3c0,11.2-9,20.2-20.2,20.2h-0.9c-11.2,0-20.2-9-20.2-20.2V150.8L353.2,150.8z"/>
	<path class="st1_restaurant-56" d="M373.8,237.1c-12.4,0-22.5-10.1-22.5-22.5v-63.9c0-1,0.8-1.9,1.8-1.9c0,0,0,0,0,0h41.3c1,0,1.9,0.8,1.9,1.8&#10;&#9;&#9;c0,0,0,0,0,0v63.9C396.3,227.1,386.2,237.1,373.8,237.1z M355,152.6v62c0,10.4,8.4,18.8,18.8,18.8c10.4,0,18.8-8.4,18.8-18.8&#10;&#9;&#9;c0,0,0,0,0,0v-62H355z"/>
	<path class="st2_restaurant-56" d="M394.4,150.8h41.3l0,0v64.3c0,11.2-9,20.2-20.2,20.2l0,0h-0.9c-11.2,0-20.2-9-20.2-20.2l0,0V150.8L394.4,150.8&#10;&#9;&#9;z"/>
	<path class="st1_restaurant-56" d="M415.1,237.1c-12.4,0-22.5-10.1-22.5-22.5v-63.9c0-1,0.8-1.9,1.9-1.9h41.3c1,0,1.9,0.8,1.9,1.8c0,0,0,0,0,0&#10;&#9;&#9;v63.9C437.5,227.1,427.5,237.1,415.1,237.1z M396.3,152.6v62c0,10.4,8.4,18.8,18.8,18.8c10.4,0,18.8-8.4,18.8-18.8v-62H396.3z"/>
	<path class="st1_restaurant-56" d="M240.9,141.7c-1,0-1.9-0.8-1.9-1.8c0-0.5,0.2-1,0.5-1.3l20.6-20.6c0.7-0.7,1.9-0.7,2.6,0&#10;&#9;&#9;c0.7,0.7,0.7,1.9,0,2.6l-20.6,20.6C241.9,141.5,241.4,141.7,240.9,141.7z"/>
	<path class="st1_restaurant-56" d="M257.9,129.2c-3.5,0-6.3-2.8-6.3-6.3c0-1.7,0.7-3.3,1.9-4.5l3.2-3.2c0.7-0.7,1.9-0.7,2.6,0&#10;&#9;&#9;c0.7,0.7,0.7,1.9,0,2.6l0,0l-3.2,3.1c-1,1-1,2.7,0,3.7c1,1,2.6,1,3.7,0l3.1-3.2c0.7-0.8,1.9-0.8,2.6-0.2c0.8,0.7,0.8,1.9,0.2,2.6&#10;&#9;&#9;c-0.1,0.1-0.1,0.1-0.2,0.2l-3.1,3.2C261.1,128.5,259.5,129.2,257.9,129.2z"/>
	<path class="st1_restaurant-56" d="M258.8,141.4c-0.5,0-1-0.2-1.3-0.5l-20.6-20.6c-0.7-0.7-0.7-1.9,0-2.6c0.7-0.7,1.9-0.7,2.6,0l20.6,20.6&#10;&#9;&#9;c0.7,0.7,0.7,1.9,0,2.6C259.8,141.2,259.3,141.4,258.8,141.4L258.8,141.4z"/>
	<ellipse transform="matrix(0.7071 -0.7071 0.7071 0.7071 -15.3198 205.8319)" class="st1_restaurant-56" cx="240.8" cy="121.4" rx="3.6" ry="6"/>
	<path class="st1_restaurant-56" d="M243.2,128.2c-2.4-0.2-4.6-1.2-6.2-3c-3.1-3.1-3.9-7.3-1.7-9.4s6.3-1.4,9.4,1.7l0,0c1.3,1.3,2.3,2.9,2.8,4.6&#10;&#9;&#9;c0.6,1.7,0.2,3.5-1,4.8C245.6,127.8,244.4,128.3,243.2,128.2z M238.4,118.3c-0.2,0-0.4,0-0.6,0.2c-0.4,0.4-0.1,2.4,1.7,4.2&#10;&#9;&#9;s3.8,2.2,4.2,1.7c0.2-0.4,0.2-0.9,0.1-1.3c-0.3-1.1-1-2.1-1.8-2.9l0,0C241.1,119.1,239.8,118.5,238.4,118.3L238.4,118.3z"/>
	<rect x="198.4" y="246.2" class="st1_restaurant-56" width="103.2" height="155.4"/>
	<path class="st1_restaurant-56" d="M301.6,403.5H198.4c-1,0-1.9-0.8-1.9-1.8c0,0,0,0,0,0V246.2c0-1,0.8-1.9,1.9-1.9l0,0h103.2&#10;&#9;&#9;c1,0,1.9,0.8,1.9,1.9v155.4C303.4,402.7,302.6,403.5,301.6,403.5C301.6,403.5,301.6,403.5,301.6,403.5z M200.3,399.8h99.5V248.1&#10;&#9;&#9;h-99.5L200.3,399.8z"/>
	<rect x="324.1" y="254" class="st4_restaurant-56" width="75.8" height="111.7"/>
	<path class="st1_restaurant-56" d="M400,367.5h-75.9c-1,0-1.9-0.8-1.9-1.8c0,0,0,0,0,0V254c0-1,0.8-1.9,1.8-1.9c0,0,0,0,0,0H400&#10;&#9;&#9;c1,0,1.9,0.8,1.9,1.9v111.6C401.9,366.7,401,367.5,400,367.5L400,367.5z M326,363.8h72.1v-108H326V363.8z"/>
	<path class="st1_restaurant-56" d="M362,367.5c-1,0-1.9-0.8-1.9-1.8c0,0,0,0,0,0v-19.8c0.1-1,1-1.8,2-1.7c0.9,0.1,1.7,0.8,1.7,1.7v19.8&#10;&#9;&#9;C363.9,366.7,363.1,367.5,362,367.5L362,367.5z"/>
	<path class="st1_restaurant-56" d="M384.6,347.7h-45.2c-1-0.1-1.8-1-1.7-2c0.1-0.9,0.8-1.7,1.7-1.7h45.2c1-0.1,1.9,0.7,2,1.7c0.1,1-0.7,1.9-1.7,2&#10;&#9;&#9;C384.8,347.7,384.7,347.7,384.6,347.7z"/>
	<polygon class="st3_restaurant-56" points="362,271.3 374,287.5 350.1,287.5 &#9;"/>
	<path class="st1_restaurant-56" d="M374,289.4h-23.9c-1,0-1.9-0.8-1.9-1.8c0-0.4,0.1-0.8,0.4-1.1l12-16.2c0.7-0.8,1.9-1,2.7-0.3&#10;&#9;&#9;c0.1,0.1,0.2,0.2,0.3,0.3l12,16.2c0.6,0.8,0.4,2-0.4,2.6C374.8,289.3,374.4,289.4,374,289.4z M353.8,285.7h16.6l-8.3-11.2&#10;&#9;&#9;L353.8,285.7z"/>
	<path class="st1_restaurant-56" d="M362,273.2c-1,0-1.9-0.8-1.9-1.8c0,0,0,0,0,0V254c-0.1-1,0.7-1.9,1.7-2c1-0.1,1.9,0.7,2,1.7c0,0.1,0,0.2,0,0.3&#10;&#9;&#9;v17.4C363.9,272.4,363.1,273.2,362,273.2z"/>
	<rect x="100" y="254" class="st4_restaurant-56" width="75.8" height="111.7"/>
	<path class="st1_restaurant-56" d="M175.9,367.5H100c-1,0-1.9-0.8-1.9-1.9V254c0-1,0.8-1.9,1.9-1.9l0,0h75.8c1,0,1.9,0.8,1.9,1.8c0,0,0,0,0,0&#10;&#9;&#9;v111.6C177.7,366.7,176.9,367.5,175.9,367.5z M101.9,363.8H174v-108h-72.1L101.9,363.8z"/>
	<path class="st1_restaurant-56" d="M138,367.5c-1,0-1.9-0.8-1.9-1.9v-19.8c0.1-1,1-1.8,2-1.7c0.9,0.1,1.7,0.8,1.7,1.7v19.8&#10;&#9;&#9;C139.9,366.7,139,367.5,138,367.5C138,367.5,138,367.5,138,367.5z"/>
	<path class="st1_restaurant-56" d="M160.6,347.7h-45.2c-1,0.1-1.9-0.7-2-1.7c-0.1-1,0.7-1.9,1.7-2c0.1,0,0.2,0,0.3,0h45.2c1,0.1,1.8,1,1.7,2&#10;&#9;&#9;C162.2,346.9,161.5,347.6,160.6,347.7z"/>
	<polygon class="st3_restaurant-56" points="137.9,271.3 149.9,287.5 126,287.5 &#9;"/>
	<path class="st1_restaurant-56" d="M149.9,289.4H126c-1,0-1.9-0.8-1.9-1.8c0-0.4,0.1-0.8,0.4-1.1l12-16.2c0.3-0.5,0.9-0.8,1.5-0.8l0,0&#10;&#9;&#9;c0.6,0,1.1,0.3,1.5,0.8l11.9,16.2c0.6,0.8,0.4,2-0.4,2.6C150.7,289.3,150.3,289.4,149.9,289.4L149.9,289.4z M129.7,285.7h16.6&#10;&#9;&#9;l-8.2-11.2L129.7,285.7z"/>
	<path class="st1_restaurant-56" d="M138,273.2c-1,0-1.9-0.8-1.9-1.9V254c-0.1-1,0.7-1.9,1.7-2c1-0.1,1.9,0.7,2,1.7c0,0.1,0,0.2,0,0.3v17.4&#10;&#9;&#9;C139.8,272.4,139,273.2,138,273.2z"/>
	<circle class="st4_restaurant-56" cx="215" cy="316.9" r="7.6"/>
	<path class="st1_restaurant-56" d="M215,326.3c-5.2,0-9.5-4.2-9.5-9.5s4.2-9.5,9.5-9.5c5.2,0,9.5,4.2,9.5,9.5c0,0,0,0,0,0&#10;&#9;&#9;C224.5,322.1,220.2,326.3,215,326.3z M215,311.1c-3.2,0-5.8,2.6-5.8,5.8s2.6,5.8,5.8,5.8c3.2,0,5.8-2.6,5.8-5.8c0,0,0,0,0,0&#10;&#9;&#9;C220.8,313.7,218.2,311.1,215,311.1z"/>
	<path class="st0_restaurant-56 targetColor" d="M62.4,401.7h375.2c1.7,0,3,1.3,3,3v5.1c0,1.7-1.3,3-3,3H62.4c-1.7,0-3-1.3-3-3v-5.1&#10;&#9;&#9;C59.4,403,60.7,401.7,62.4,401.7z" style="fill: rgb(33, 48, 194);"/>
	<path class="st1_restaurant-56" d="M435,414.7H65c-4.1,0.2-7.5-3.1-7.7-7.2s3.1-7.5,7.2-7.7c0.2,0,0.4,0,0.5,0h370c4.1-0.2,7.5,3.1,7.7,7.2&#10;&#9;&#9;c0.2,4.1-3.1,7.5-7.2,7.7C435.4,414.7,435.2,414.7,435,414.7z M65,403.5c-2.1,0-3.7,1.7-3.7,3.7c0,2.1,1.7,3.7,3.7,3.7l0,0h370&#10;&#9;&#9;c2.1-0.1,3.6-1.9,3.5-3.9c-0.1-1.9-1.6-3.4-3.5-3.5L65,403.5z"/>
	<path class="st0_restaurant-56 targetColor" d="M64.5,87.2h370.9c2.8,0,5.1,2.3,5.1,5.2v8.8c0,2.8-2.3,5.2-5.1,5.2H64.5c-2.8,0-5.1-2.3-5.1-5.2v-8.8&#10;&#9;&#9;C59.4,89.5,61.7,87.2,64.5,87.2z" style="fill: rgb(33, 48, 194);"/>
	<path class="st1_restaurant-56" d="M431.1,108.1H68.9c-6.3-0.2-11.2-5.4-11.1-11.7c0.2-6,5-10.9,11.1-11.1h362.2c6.3,0.2,11.2,5.4,11.1,11.7&#10;&#9;&#9;C442,103.1,437.1,107.9,431.1,108.1z M68.9,89c-4.2,0-7.7,3.4-7.7,7.7c0,4.2,3.4,7.7,7.7,7.7h362.2c4.2,0,7.7-3.4,7.7-7.7&#10;&#9;&#9;c0-4.2-3.4-7.7-7.7-7.7H68.9z"/>
	<path class="st1_restaurant-56" d="M210.7,131.1H102.6c-1,0-1.9-0.8-1.9-1.8s0.8-1.9,1.8-1.9c0,0,0,0,0,0h108.1c1,0,1.9,0.8,1.9,1.8&#10;&#9;&#9;S211.7,131.1,210.7,131.1C210.7,131.1,210.7,131.1,210.7,131.1z"/>
	<path class="st1_restaurant-56" d="M397.4,131.1H289.3c-1,0-1.8-0.8-1.8-1.9c0-1,0.8-1.8,1.8-1.8h108.1c1,0,1.9,0.8,1.9,1.8&#10;&#9;&#9;C399.2,130.3,398.4,131.1,397.4,131.1C397.4,131.1,397.4,131.1,397.4,131.1z"/>
	<path class="st5_restaurant-56" d="M138,320.7c-0.5,0-0.9-0.2-1.3-0.5c-0.7-0.7-0.8-1.9-0.1-2.6c0,0,0,0,0,0l24.3-25.9c0.7-0.7,1.9-0.7,2.6,0.1&#10;&#9;&#9;c0.7,0.7,0.7,1.8,0.1,2.5l-24.3,25.9C139,320.4,138.5,320.7,138,320.7z"/>
	<path class="st5_restaurant-56" d="M112.1,324c-0.4,0-0.9-0.2-1.2-0.5c-0.8-0.7-0.8-1.8-0.2-2.6l16.4-18.7c0.7-0.8,1.8-0.8,2.6-0.2&#10;&#9;&#9;c0.8,0.7,0.8,1.8,0.2,2.6l-16.4,18.7C113.2,323.8,112.7,324,112.1,324z"/>
	<path class="st5_restaurant-56" d="M339.5,323.3c-1,0-1.9-0.8-1.9-1.8c0-0.5,0.2-1,0.6-1.4l22.6-21c0.8-0.7,1.9-0.7,2.6,0.1s0.7,1.9-0.1,2.6&#10;&#9;&#9;l-22.6,21C340.4,323.1,339.9,323.3,339.5,323.3z"/>
	<path class="st5_restaurant-56" d="M365.3,333.1c-1,0-1.9-0.8-1.9-1.8c0-0.5,0.2-1,0.6-1.4c11.9-11.5,26.4-25.2,27.6-25.9c0.9-0.4,2,0,2.5,0.9&#10;&#9;&#9;c0.4,0.8,0.1,1.8-0.7,2.3c-1.6,1.2-17.3,16.1-26.8,25.3C366.2,332.9,365.8,333.1,365.3,333.1z"/>
</g>
</svg>